<?xml version="1.0" encoding="UTF-8"?>
<svg id="a" data-name="Layer 1" xmlns="http://www.w3.org/2000/svg" viewBox="0 0 654 731">
  <defs>
    <style>
      .b {
        fill: #fff;
      }

      .c {
        fill: #9361a8;
      }

      .d {
        fill: #9d74b3;
      }

      .e {
        fill: #8a5ba6;
      }

      .f {
        fill: #9e64aa;
      }
    </style>
  </defs>
  <path class="d" d="M72.84,45.97L118.52,.04,52.46-64.81,.07-14.42l-49.55-52.64L-115.8,.04,.07,115.17,67.42,51.13,17.62,1.58,50.91-31.45,84.2,1.84l-27.87,27.36,16.51,16.77Zm-37.93,7.23L1.36,85.2-32.45,52.16-4.32,24.05-21.09,7l-28.65,28.13L-82,2.62-47.93-29.9,34.91,53.2Z"/>
  <path class="e" d="M72.84,206.52l45.68-45.93L52.46,95.74,.07,146.13l-49.55-52.64-66.32,67.1L.07,275.72l67.35-64.04-49.8-49.55,33.29-33.03,33.29,33.29-27.87,27.36,16.51,16.77Zm-37.93,7.23L1.36,245.75l-33.81-33.04,28.13-28.11-16.77-17.05-28.65,28.13-32.26-32.51,34.07-32.52L34.91,213.75Z"/>
  <path class="c" d="M71.48,365.52l45.68-45.93L51.1,254.74-1.29,305.13l-49.55-52.64-66.32,67.1L-1.29,434.72l67.35-64.04-49.8-49.55,33.29-33.03,33.29,33.29-27.87,27.36,16.51,16.77Zm-37.93,7.23L0,404.75l-33.81-33.04,28.13-28.11-16.77-17.05-28.65,28.13-32.26-32.51,34.07-32.52,82.84,83.1Z"/>
  <path class="d" d="M71.48,526.06l45.68-45.93-66.06-64.85L-1.29,465.67l-49.55-52.64-66.32,67.1L-1.29,595.26l67.35-64.04-49.8-49.55,33.29-33.03,33.29,33.29-27.87,27.36,16.51,16.77Zm-37.93,7.23L0,565.29l-33.81-33.04,28.13-28.11-16.77-17.05-28.65,28.13-32.26-32.51,34.07-32.52,82.84,83.1Z"/>
  <path class="f" d="M71.48,686.48l45.68-45.93-66.06-64.85L-1.29,626.09l-49.55-52.64-66.32,67.1L-1.29,755.68l67.35-64.04-49.8-49.55,33.29-33.03,33.29,33.29-27.87,27.36,16.51,16.77Zm-37.93,7.23L0,725.71l-33.81-33.04,28.13-28.11-16.77-17.05-28.65,28.13-32.26-32.51,34.07-32.52,82.84,83.1Z"/>
  <path class="b" d="M256.38,127.01l45.68-45.93L236,16.23l-52.39,50.39L134.06,13.98,67.74,81.08l115.87,115.13,67.35-64.04-49.8-49.55,33.29-33.03,33.29,33.29-27.87,27.36,16.51,16.77Zm-37.93,7.23l-33.55,32-33.81-33.04,28.13-28.11-16.77-17.05-28.65,28.13-32.26-32.51,34.07-32.52,82.84,83.1Z"/>
  <path class="c" d="M256.38-34.05l45.68-45.93-66.06-64.85-52.39,50.39-49.55-52.64L67.74-79.98,183.61,35.15,250.96-28.89l-49.8-49.55,33.29-33.03,33.29,33.29-27.87,27.36,16.51,16.77Zm-37.93,7.23L184.9,5.18l-33.81-33.04,28.13-28.11-16.77-17.05-28.65,28.13-32.26-32.51,34.07-32.52L218.45-26.82Z"/>
  <path class="d" d="M255.03,286.01l45.68-45.93-66.06-64.85-52.39,50.39-49.55-52.64-66.32,67.1,115.87,115.13,67.35-64.04-49.8-49.55,33.29-33.03,33.29,33.29-27.87,27.36,16.51,16.77Zm-37.93,7.23l-33.55,32-33.81-33.04,28.13-28.11-16.77-17.05-28.65,28.13-32.26-32.51,34.07-32.52,82.84,83.1Z"/>
  <path class="e" d="M255.03,446.56l45.68-45.93-66.06-64.85-52.39,50.39-49.55-52.64-66.32,67.1,115.87,115.13,67.35-64.04-49.8-49.55,33.29-33.03,33.29,33.29-27.87,27.36,16.51,16.77Zm-37.93,7.23l-33.55,32-33.81-33.04,28.13-28.11-16.77-17.05-28.65,28.13-32.26-32.51,34.07-32.52,82.84,83.1Z"/>
  <path class="c" d="M255.03,606.98l45.68-45.93-66.06-64.85-52.39,50.39-49.55-52.64-66.32,67.1,115.87,115.13,67.35-64.04-49.8-49.55,33.29-33.03,33.29,33.29-27.87,27.36,16.51,16.77Zm-37.93,7.23l-33.55,32-33.81-33.04,28.13-28.11-16.77-17.05-28.65,28.13-32.26-32.51,34.07-32.52,82.84,83.1Z"/>
  <path class="d" d="M255.38,767.04l45.68-45.93-66.06-64.85-52.39,50.39-49.55-52.64-66.32,67.1,115.87,115.13,67.35-64.04-49.8-49.55,33.29-33.03,33.29,33.29-27.87,27.36,16.51,16.77Zm-37.93,7.23l-33.55,32-33.81-33.04,28.13-28.11-16.77-17.05-28.65,28.13-32.26-32.51,34.07-32.52,82.84,83.1Z"/>
  <path class="d" d="M438.77,44.6L484.45-1.33l-66.06-64.85-52.39,50.39-49.55-52.64L250.13-1.33l115.87,115.13,67.35-64.04L383.55,.21l33.29-33.03L450.13,.47l-27.87,27.36,16.51,16.77Zm-37.93,7.23l-33.55,32-33.81-33.04,28.13-28.11-16.77-17.05-28.65,28.13L283.93,1.25l34.07-32.52,82.84,83.1Z"/>
  <path class="c" d="M438.77,205.15l45.68-45.93-66.06-64.85-52.39,50.39-49.55-52.64-66.32,67.1,115.87,115.13,67.35-64.04-49.8-49.55,33.29-33.03,33.29,33.29-27.87,27.36,16.51,16.77Zm-37.93,7.23l-33.55,32-33.81-33.04,28.13-28.11-16.77-17.05-28.65,28.13-32.26-32.51,34.07-32.52,82.84,83.1Z"/>
  <path class="f" d="M437.42,364.15l45.68-45.93-66.06-64.85-52.39,50.39-49.55-52.64-66.32,67.1,115.87,115.13,67.35-64.04-49.8-49.55,33.29-33.03,33.29,33.29-27.87,27.36,16.51,16.77Zm-37.93,7.23l-33.55,32-33.81-33.04,28.13-28.11-16.77-17.05-28.65,28.13-32.26-32.51,34.07-32.52,82.84,83.1Z"/>
  <path class="d" d="M437.42,524.69l45.68-45.93-66.06-64.85-52.39,50.39-49.55-52.64-66.32,67.1,115.87,115.13,67.35-64.04-49.8-49.55,33.29-33.03,33.29,33.29-27.87,27.36,16.51,16.77Zm-37.93,7.23l-33.55,32-33.81-33.04,28.13-28.11-16.77-17.05-28.65,28.13-32.26-32.51,34.07-32.52,82.84,83.1Z"/>
  <path class="e" d="M437.42,685.11l45.68-45.93-66.06-64.85-52.39,50.39-49.55-52.64-66.32,67.1,115.87,115.13,67.35-64.04-49.8-49.55,33.29-33.03,33.29,33.29-27.87,27.36,16.51,16.77Zm-37.93,7.23l-33.55,32-33.81-33.04,28.13-28.11-16.77-17.05-28.65,28.13-32.26-32.51,34.07-32.52,82.84,83.1Z"/>
  <path class="f" d="M622.32,125.64l45.68-45.93L601.94,14.86l-52.39,50.39-49.55-52.64-66.32,67.1,115.87,115.13,67.35-64.04-49.8-49.55,33.29-33.03,33.29,33.29-27.87,27.36,16.51,16.77Zm-37.93,7.23l-33.55,32-33.81-33.04,28.13-28.11-16.77-17.05-28.65,28.13-32.26-32.51,34.07-32.52,82.84,83.1Z"/>
  <path class="e" d="M622.32-35.42l45.68-45.93-66.06-64.85-52.39,50.39-49.55-52.64-66.32,67.1,115.87,115.13,67.35-64.04-49.8-49.55,33.29-33.03,33.29,33.29-27.87,27.36,16.51,16.77Zm-37.93,7.23L550.84,3.81l-33.81-33.04,28.13-28.11-16.77-17.05-28.65,28.13-32.26-32.51,34.07-32.52,82.84,83.1Z"/>
  <path class="e" d="M620.96,284.64l45.68-45.93-66.06-64.85-52.39,50.39-49.55-52.64-66.32,67.1,115.87,115.13,67.35-64.04-49.8-49.55,33.29-33.03,33.29,33.29-27.87,27.36,16.51,16.77Zm-37.93,7.23l-33.55,32-33.81-33.04,28.13-28.11-16.77-17.05-28.65,28.13-32.26-32.51,34.07-32.52,82.84,83.1Z"/>
  <path class="c" d="M620.96,445.19l45.68-45.93-66.06-64.85-52.39,50.39-49.55-52.64-66.32,67.1,115.87,115.13,67.35-64.04-49.8-49.55,33.29-33.03,33.29,33.29-27.87,27.36,16.51,16.77Zm-37.93,7.23l-33.55,32-33.81-33.04,28.13-28.11-16.77-17.05-28.65,28.13-32.26-32.51,34.07-32.52,82.84,83.1Z"/>
  <path class="d" d="M620.96,605.61l45.68-45.93-66.06-64.85-52.39,50.39-49.55-52.64-66.32,67.1,115.87,115.13,67.35-64.04-49.8-49.55,33.29-33.03,33.29,33.29-27.87,27.36,16.51,16.77Zm-37.93,7.23l-33.55,32-33.81-33.04,28.13-28.11-16.77-17.05-28.65,28.13-32.26-32.51,34.07-32.52,82.84,83.1Z"/>
  <path class="c" d="M621.32,765.67l45.68-45.93-66.06-64.85-52.39,50.39-49.55-52.64-66.32,67.1,115.87,115.13,67.35-64.04-49.8-49.55,33.29-33.03,33.29,33.29-27.87,27.36,16.51,16.77Zm-37.93,7.23l-33.55,32-33.81-33.04,28.13-28.11-16.77-17.05-28.65,28.13-32.26-32.51,34.07-32.52,82.84,83.1Z"/>
  <path class="e" d="M804.55,204.15l45.68-45.93-66.06-64.85-52.39,50.39-49.55-52.64-66.32,67.1,115.87,115.13,67.35-64.04-49.8-49.55,33.29-33.03,33.29,33.29-27.87,27.36,16.51,16.77Zm-37.93,7.23l-33.55,32-33.81-33.04,28.13-28.11-16.77-17.05-28.65,28.13-32.26-32.51,34.07-32.52,82.84,83.1Z"/>
  <path class="d" d="M804.55,43.08L850.23-2.85l-66.06-64.85-52.39,50.39-49.55-52.64L615.91-2.85l115.87,115.13,67.35-64.04L749.33-1.31l33.29-33.03L815.91-1.05l-27.87,27.36,16.51,16.77Zm-37.93,7.23l-33.55,32-33.81-33.04,28.13-28.11-16.77-17.05-28.65,28.13L649.71-.27l34.07-32.52,82.84,83.1Z"/>
  <path class="d" d="M803.19,363.15l45.68-45.93-66.06-64.85-52.39,50.39-49.55-52.64-66.32,67.1,115.87,115.13,67.35-64.04-49.8-49.55,33.29-33.03,33.29,33.29-27.87,27.36,16.51,16.77Zm-37.93,7.23l-33.55,32-33.81-33.04,28.13-28.11-16.77-17.05-28.65,28.13-32.26-32.51,34.07-32.52,82.84,83.1Z"/>
  <path class="f" d="M803.19,523.69l45.68-45.93-66.06-64.85-52.39,50.39-49.55-52.64-66.32,67.1,115.87,115.13,67.35-64.04-49.8-49.55,33.29-33.03,33.29,33.29-27.87,27.36,16.51,16.77Zm-37.93,7.23l-33.55,32-33.81-33.04,28.13-28.11-16.77-17.05-28.65,28.13-32.26-32.51,34.07-32.52,82.84,83.1Z"/>
  <path class="e" d="M803.19,684.11l45.68-45.93-66.06-64.85-52.39,50.39-49.55-52.64-66.32,67.1,115.87,115.13,67.35-64.04-49.8-49.55,33.29-33.03,33.29,33.29-27.87,27.36,16.51,16.77Zm-37.93,7.23l-33.55,32-33.81-33.04,28.13-28.11-16.77-17.05-28.65,28.13-32.26-32.51,34.07-32.52,82.84,83.1Z"/>
</svg>